<svg width="26" height="26" viewBox="0 0 26 26" fill="none" xmlns="http://www.w3.org/2000/svg">
<g clip-path="url(#clip0_346_369)">
<path d="M11.7706 6.87213C11.643 6.50953 11.406 6.19546 11.0923 5.97326C10.7786 5.75105 10.4037 5.63166 10.0193 5.63156H8.58005C8.17174 5.6327 7.77821 5.78443 7.47482 6.05769C7.17143 6.33094 6.9795 6.70652 6.9358 7.11248C6.8921 7.51844 6.99969 7.92625 7.23798 8.25782C7.47626 8.58938 7.82848 8.82139 8.22719 8.90941L10.4149 9.38856C10.8626 9.48626 11.2583 9.74599 11.526 10.1178C11.7937 10.4896 11.9146 10.9473 11.8652 11.4028C11.8159 11.8584 11.6 12.2796 11.2589 12.5855C10.9178 12.8914 10.4757 13.0605 10.0175 13.0601H8.77876C8.3948 13.0603 8.02023 12.9414 7.70661 12.7199C7.39298 12.4984 7.15572 12.1852 7.02748 11.8233M9.4009 5.63156V3.77441M9.4009 14.9173V13.0601M12.9425 25.0703V15.3203C12.9425 14.7046 13.1871 14.1141 13.6224 13.6788C14.0578 13.2434 14.6482 12.9988 15.2639 12.9988C15.8796 12.9988 16.47 13.2434 16.9054 13.6788C17.3408 14.1141 17.5853 14.7046 17.5853 15.3203V20.4274H21.2996C22.2847 20.4274 23.2295 20.8187 23.926 21.5153C24.6226 22.2119 25.0139 23.1566 25.0139 24.1417V25.0703" stroke="#4F4F44" stroke-linecap="round" stroke-linejoin="round"/>
<path d="M9.40282 17.7621C7.68938 17.7618 6.01684 17.2385 4.60883 16.2621C3.20081 15.2857 2.12443 13.9027 1.52358 12.2981C0.92274 10.6934 0.826077 8.94361 1.24652 7.28255C1.66696 5.6215 2.58447 4.12837 3.87637 3.00282C5.16827 1.87726 6.77299 1.17291 8.47598 0.983952C10.179 0.794989 11.8991 1.13042 13.4063 1.94538C14.9135 2.76035 16.136 4.01602 16.9104 5.54451C17.6847 7.07299 17.974 8.80144 17.7395 10.4988" stroke="#4F4F44" stroke-linecap="round"/>
</g>
<defs>
<clipPath id="clip0_346_369">
<rect width="26" height="26" fill="white"/>
</clipPath>
</defs>
</svg>
