<svg width="28" height="21" viewBox="0 0 28 21" fill="none" xmlns="http://www.w3.org/2000/svg">
<path d="M5.58917 20.333V8.26101L1.47184 11.333L0.666504 10.277L13.9998 0.333008L19.7945 4.63034V1.66634H22.3078V6.51834L27.3585 10.277L26.5545 11.333L22.4358 8.26101V20.333H15.6412V13.3597H12.3585V20.333H5.58917ZM6.9225 18.9997H11.0265V12.0263H16.9758V18.9997H21.1038V7.27967L13.9998 2.00767L6.9225 7.27967V18.9997ZM11.5892 8.34101H16.4105C16.4105 7.71523 16.1696 7.20012 15.6878 6.79567C15.2052 6.39123 14.6425 6.18901 13.9998 6.18901C13.3572 6.18901 12.795 6.39034 12.3132 6.79301C11.8314 7.19567 11.5901 7.71256 11.5892 8.34101ZM11.0265 18.9997V12.0263H16.9758H11.0252L11.0265 18.9997Z" fill="#4F4F4F"/>
</svg>
