<svg width="24" height="24" viewBox="0 0 24 24" fill="none" xmlns="http://www.w3.org/2000/svg">
<path d="M4.58 8.60745L2 8.45445C3.849 3.70445 9.158 1.00045 14.333 2.34445C19.846 3.77745 23.121 9.26245 21.647 14.5944C20.428 19.0054 16.343 21.9314 11.847 22.0004" stroke="#4F4F4F" stroke-width="1.5" stroke-linecap="round" stroke-linejoin="round"/>
<path d="M12 22.0005C6.5 22.0005 2 17.0005 2 11.0005M13.604 9.72251C13.252 9.35251 12.391 8.48551 11.029 9.10251C9.668 9.71751 9.452 11.6985 11.511 11.9095C12.441 12.0045 13.048 11.7995 13.604 12.3795C14.16 12.9615 14.263 14.5775 12.843 15.0135C11.423 15.4495 10.502 14.7295 10.255 14.5045M11.908 8.02051V8.81051M11.908 15.1475V16.0205" stroke="#4F4F4F" stroke-width="1.5" stroke-linecap="round" stroke-linejoin="round"/>
</svg>
