<svg width="26" height="26" viewBox="0 0 26 26" fill="none" xmlns="http://www.w3.org/2000/svg">
<path d="M17.0624 6.5C17.0624 7.57744 16.6344 8.61075 15.8725 9.37262C15.1106 10.1345 14.0773 10.5625 12.9999 10.5625C11.9225 10.5625 10.8891 10.1345 10.1273 9.37262C9.36541 8.61075 8.93739 7.57744 8.93739 6.5C8.93739 5.42256 9.36541 4.38925 10.1273 3.62738C10.8891 2.86551 11.9225 2.4375 12.9999 2.4375C14.0773 2.4375 15.1106 2.86551 15.8725 3.62738C16.6344 4.38925 17.0624 5.42256 17.0624 6.5ZM4.87598 21.7945C4.91079 19.6629 5.78201 17.6303 7.30175 16.1352C8.82149 14.6401 10.868 13.8022 12.9999 13.8022C15.1318 13.8022 17.1783 14.6401 18.698 16.1352C20.2178 17.6303 21.089 19.6629 21.1238 21.7945C18.5755 22.9642 15.8038 23.5674 12.9999 23.5625C10.1009 23.5625 7.34923 22.9298 4.87598 21.7945Z" stroke="#4F4F4F" stroke-width="1.5" stroke-linecap="round" stroke-linejoin="round"/>
</svg>
