<?xml version="1.0" encoding="UTF-8"?>
<svg version="1.1" xmlns="http://www.w3.org/2000/svg" width="156" height="93">
<path d="M0 0 C3.15020361 -0.88319294 3.15020361 -0.88319294 6 -2 C8 3.75 8 3.75 8 6 C9.051875 6.1546875 9.051875 6.1546875 10.125 6.3125 C13.39112785 7.09353057 16.02506741 8.46308884 19 10 C18.96970703 10.76030518 18.93941406 11.52061035 18.90820312 12.30395508 C18.76991161 15.80671958 18.63493714 19.30960473 18.5 22.8125 C18.45230469 24.00810547 18.40460938 25.20371094 18.35546875 26.43554688 C18.08108741 33.6282576 17.93366873 40.80213545 18 48 C12.22621075 47.5188509 8.04140164 45.81532819 3 43 C3 42.34 3 41.68 3 41 C2.13375 40.814375 2.13375 40.814375 1.25 40.625 C-1 40 -1 40 -2.8125 38.9375 C-8.47983605 36.50864169 -13.93907736 38.41778804 -19.4375 40.4375 C-28.50315618 43.75558688 -34.2421824 44.73686662 -43.3125 41.5 C-53.67178795 38.15263399 -61.18737423 39.31210472 -71.5390625 42.3671875 C-74.41827563 43.10755659 -77.03982867 43.24001389 -80 43 C-81.2062252 39.38132441 -81.10816918 36.07493749 -81.0625 32.3125 C-81.05798828 31.61060547 -81.05347656 30.90871094 -81.04882812 30.18554688 C-81.03706927 28.45699462 -81.01913454 26.72848635 -81 25 C-76.7155498 23.80278484 -72.42167928 22.65539146 -68.11230469 21.55224609 C-66.1430482 21.03739887 -64.18422661 20.48308728 -62.2265625 19.92578125 C-52.0776035 17.36149204 -44.69510506 18.80227153 -35 22 C-35.33 17.71 -35.66 13.42 -36 9 C-10.10958904 -3.36986301 -10.10958904 -3.36986301 0 0 Z " fill="#2161B0" transform="translate(111,19)"/>
<path d="M0 0 C8.2253439 2.85345498 13.98006996 1.73551017 22.17578125 -0.90576172 C35.27715509 -4.90079948 35.27715509 -4.90079948 42.13671875 -1.34521484 C42.80960937 -0.97332031 43.4825 -0.60142578 44.17578125 -0.21826172 C44.84867187 0.13429688 45.5215625 0.48685547 46.21484375 0.85009766 C47.55596906 1.55820146 48.88947682 2.28093847 50.21459961 3.01855469 C51.52528773 3.73745072 52.85521978 4.42228827 54.20141602 5.07226562 C58.95468272 7.4625282 58.95468272 7.4625282 60.078125 10.67236328 C60.08972656 11.55408203 60.10132813 12.43580078 60.11328125 13.34423828 C60.14292969 14.23626953 60.17257813 15.12830078 60.203125 16.04736328 C60.19410156 16.72283203 60.18507812 17.39830078 60.17578125 18.09423828 C64.02497207 19.21390907 67.87810292 20.28380165 71.76171875 21.27783203 C72.93927734 21.58624023 72.93927734 21.58624023 74.140625 21.90087891 C75.76840074 22.32694987 77.3987234 22.74338998 79.03125 23.15087891 C79.80855469 23.35777344 80.58585938 23.56466797 81.38671875 23.77783203 C82.09103027 23.95886475 82.7953418 24.13989746 83.52099609 24.32641602 C84.0670752 24.57979736 84.6131543 24.83317871 85.17578125 25.09423828 C85.50578125 26.08423828 85.83578125 27.07423828 86.17578125 28.09423828 C74.91635947 27.62560955 63.71021313 26.9312528 52.48828125 25.89770508 C42.73774886 25.01654465 32.97279212 24.39123767 23.20166016 23.79174805 C21.98526855 23.71496826 20.76887695 23.63818848 19.515625 23.55908203 C18.43659912 23.49325928 17.35757324 23.42743652 16.24584961 23.35961914 C13.17578125 23.09423828 13.17578125 23.09423828 10.11254883 22.57250977 C-0.21125216 20.89121239 -11.16912146 22.34972459 -21.57421875 22.96923828 C-22.33624603 23.01336853 -23.09827332 23.05749878 -23.88339233 23.10296631 C-34.78348235 23.73486798 -45.66596051 24.49133352 -56.54003906 25.484375 C-60.98783908 25.88732006 -65.3514417 26.19774056 -69.82421875 26.09423828 C-69.21484375 24.22705078 -69.21484375 24.22705078 -67.82421875 22.09423828 C-59.07429405 18.31249116 -49.19902201 17.24217337 -39.82421875 16.09423828 C-39.82421875 11.80423828 -39.82421875 7.51423828 -39.82421875 3.09423828 C-33.75066514 1.43934193 -33.75066514 1.43934193 -31.06152344 0.74902344 C-27.84716548 -0.07652612 -24.73270661 -0.93826239 -21.6015625 -2.05029297 C-13.19787751 -4.77200256 -7.95192018 -2.94075198 0 0 Z " fill="#1F5FAF" transform="translate(69.82421875,63.90576171875)"/>
<path d="M0 0 C3 0.6875 3 0.6875 6 1.6875 C9.15020361 0.80430706 9.15020361 0.80430706 12 -0.3125 C14 5.4375 14 5.4375 14 7.6875 C15.051875 7.8421875 15.051875 7.8421875 16.125 8 C19.39112785 8.78103057 22.02506741 10.15058884 25 11.6875 C24.96970703 12.44780518 24.93941406 13.20811035 24.90820312 13.99145508 C24.76991161 17.49421958 24.63493714 20.99710473 24.5 24.5 C24.45230469 25.69560547 24.40460938 26.89121094 24.35546875 28.12304688 C24.08108741 35.3157576 23.93366873 42.48963545 24 49.6875 C18.22621075 49.2063509 14.04140164 47.50282819 9 44.6875 C9 44.0275 9 43.3675 9 42.6875 C8.13375 42.501875 8.13375 42.501875 7.25 42.3125 C5 41.6875 5 41.6875 3.15625 40.65625 C0.66758912 39.53815598 -1.0384976 39.48274993 -3.75 39.5625 C-4.54921875 39.58054688 -5.3484375 39.59859375 -6.171875 39.6171875 C-6.77515625 39.64039063 -7.3784375 39.66359375 -8 39.6875 C-7.67 39.0275 -7.34 38.3675 -7 37.6875 C-5.02 37.6875 -3.04 37.6875 -1 37.6875 C-1 25.8075 -1 13.9275 -1 1.6875 C-2.65 1.6875 -4.3 1.6875 -6 1.6875 C-3 -0.3125 -3 -0.3125 0 0 Z " fill="#CE9C3D" transform="translate(105,17.3125)"/>
<path d="M0 0 C0 0.66 0 1.32 0 2 C1.32 2 2.64 2 4 2 C4 8.6 4 15.2 4 22 C4.66 22.33 5.32 22.66 6 23 C0.88109067 22.0742398 -4.02192533 21.03255663 -8.9375 19.3125 C-17.41200535 16.70394132 -25.27117692 18.92709519 -33.5390625 21.3671875 C-36.41827563 22.10755659 -39.03982867 22.24001389 -42 22 C-43.2062252 18.38132441 -43.10816918 15.07493749 -43.0625 11.3125 C-43.05798828 10.61060547 -43.05347656 9.90871094 -43.04882812 9.18554688 C-43.03706927 7.45699462 -43.01913454 5.72848635 -43 4 C-39.38602092 3.01527818 -35.76964702 2.04448004 -32.14453125 1.1015625 C-29.61627246 0.44201673 -27.13544764 -0.26709748 -24.63671875 -1.0390625 C-15.61506346 -3.62309826 -8.90962848 -2.40301183 0 0 Z " fill="#2161B0" transform="translate(73,40)"/>
<path d="M0 0 C1.12535156 0.50917969 2.25070313 1.01835938 3.41015625 1.54296875 C11.49553671 5.60011437 11.49553671 5.60011437 12.9375 9.6015625 C13.16966956 12.11915114 13.12437903 14.48017298 13 17 C13.33 17.66 13.66 18.32 14 19 C7.45262159 19.15856416 1.38367188 18.61020183 -5.0625 17.5 C-6.3609082 17.28537109 -6.3609082 17.28537109 -7.68554688 17.06640625 C-9.7914397 16.71736324 -11.89588495 16.35960461 -14 16 C-14.09507063 9.56688704 -14.15316726 3.34241995 -13 -3 C-14.65 -3 -16.3 -3 -18 -3 C-18 -3.33 -18 -3.66 -18 -4 C-10.84117659 -5.68939785 -6.39763871 -3.09513614 0 0 Z " fill="#CFA14A" transform="translate(117,65)"/>
<path d="M0 0 C4.95 0.99 9.9 1.98 15 3 C15 3.66 15 4.32 15 5 C16.32 5 17.64 5 19 5 C19 11.6 19 18.2 19 25 C19.66 25.33 20.32 25.66 21 26 C12.53164559 24.48565898 4.28745132 22.27628663 -4 20 C-2.68 19.67 -1.36 19.34 0 19 C0 12.73 0 6.46 0 0 Z " fill="#D19F40" transform="translate(58,37)"/>
<path d="M0 0 C1.40185547 0.47856445 1.40185547 0.47856445 2.83203125 0.96679688 C3.80011719 1.30904297 4.76820312 1.65128906 5.765625 2.00390625 C6.74917969 2.34228516 7.73273438 2.68066406 8.74609375 3.02929688 C11.17268866 3.86564755 13.59547528 4.71162053 16.015625 5.56640625 C15.025625 5.89640625 14.035625 6.22640625 13.015625 6.56640625 C13.015625 10.19640625 13.015625 13.82640625 13.015625 17.56640625 C6.745625 17.56640625 0.475625 17.56640625 -5.984375 17.56640625 C-5.984375 11.95640625 -5.984375 6.34640625 -5.984375 0.56640625 C-6.974375 0.23640625 -7.964375 -0.09359375 -8.984375 -0.43359375 C-5.48784685 -1.65454741 -3.45964927 -1.20243907 0 0 Z " fill="#C89739" transform="translate(62.984375,61.43359375)"/>
<path d="M0 0 C5.6763042 0.14261061 10.9417185 1.26040222 16.40576172 2.75512695 C17.59202148 3.07429077 17.59202148 3.07429077 18.80224609 3.39990234 C21.02294922 4.0559082 21.02294922 4.0559082 24.53076172 5.44262695 C25.02576172 6.92762695 25.02576172 6.92762695 25.53076172 8.44262695 C11.15388671 7.84424661 -3.14244014 6.76941859 -17.46923828 5.44262695 C-19.53040199 5.25475125 -21.59159915 5.06724223 -23.65283203 4.88012695 C-24.57507568 4.79633789 -25.49731934 4.71254883 -26.44750977 4.6262207 C-27.11468018 4.56563477 -27.78185059 4.50504883 -28.46923828 4.44262695 C-28.46923828 4.11262695 -28.46923828 3.78262695 -28.46923828 3.44262695 C-27.19306641 3.39364258 -25.91689453 3.3446582 -24.60205078 3.29418945 C-22.93275756 3.21916504 -21.26348782 3.14361707 -19.59423828 3.06762695 C-18.75248047 3.03668945 -17.91072266 3.00575195 -17.04345703 2.97387695 C-16.23779297 2.93520508 -15.43212891 2.8965332 -14.60205078 2.85668945 C-13.85842285 2.82526855 -13.11479492 2.79384766 -12.34863281 2.76147461 C-7.91897179 2.00996288 -5.30875492 0.01382145 0 0 Z " fill="#6290C1" transform="translate(130.46923828125,83.557373046875)"/>
<path d="M0 0 C-1.98 0.99 -1.98 0.99 -4 2 C-2.06257659 2.02703381 -0.12504521 2.04641125 1.8125 2.0625 C3.43091797 2.07990234 3.43091797 2.07990234 5.08203125 2.09765625 C8.06512169 2.13624766 8.06512169 2.13624766 11 1 C22.1860369 -0.37966042 33.5597369 -0.31702525 44.8125 -0.5625 C46.68034592 -0.6058025 48.54818457 -0.64942002 50.41601562 -0.69335938 C54.94393484 -0.79920018 59.47193076 -0.90079397 64 -1 C64 -0.67 64 -0.34 64 0 C62.86908936 0.08040527 61.73817871 0.16081055 60.57299805 0.24365234 C56.24472436 0.55149653 51.9164846 0.85981535 47.58825684 1.16830444 C45.65882012 1.30578787 43.72937679 1.44317844 41.79992676 1.58047485 C27.60345106 2.59075328 27.60345106 2.59075328 13.41015625 3.64453125 C12.18014893 3.73750488 10.9501416 3.83047852 9.68286133 3.92626953 C7.45468153 4.09582734 5.22664376 4.267266 2.9987793 4.44091797 C-1.68013486 4.79703469 -6.30294965 5.10384635 -11 5 C-10.4375 3.125 -10.4375 3.125 -9 1 C-2.71428571 -1.35714286 -2.71428571 -1.35714286 0 0 Z " fill="#82A4CA" transform="translate(11,85)"/>
<path d="M0 0 C0 0.66 0 1.32 0 2 C-5.75454544 4.46623376 -9.76753324 5.21868304 -16 5 C-16.33 5.33 -16.66 5.66 -17 6 C-18.68183948 6.23287008 -20.3712416 6.41264166 -22.0625 6.5625 C-22.98160156 6.64628906 -23.90070312 6.73007812 -24.84765625 6.81640625 C-25.55792969 6.87699219 -26.26820312 6.93757813 -27 7 C-26.83628906 7.53109375 -26.67257813 8.0621875 -26.50390625 8.609375 C-25.88643623 11.53876764 -25.90498075 14.25822936 -25.9375 17.25 C-25.94652344 18.32765625 -25.95554688 19.4053125 -25.96484375 20.515625 C-25.97644531 21.33546875 -25.98804688 22.1553125 -26 23 C-24.35 23 -22.7 23 -21 23 C-21 23.33 -21 23.66 -21 24 C-22.98 24 -24.96 24 -27 24 C-28.2062252 20.38132441 -28.10816918 17.07493749 -28.0625 13.3125 C-28.05798828 12.61060547 -28.05347656 11.90871094 -28.04882812 11.18554688 C-28.03706927 9.45699462 -28.01913454 7.72848635 -28 6 C-24.28497813 5.00352278 -20.56928586 4.00979021 -16.8515625 3.0234375 C-14.69888645 2.45142825 -12.54703227 1.87621603 -10.3984375 1.2890625 C-6.85345359 0.34464594 -3.67472365 -0.22967023 0 0 Z " fill="#799DC5" transform="translate(58,38)"/>
<path d="M0 0 C0.99 0.66 1.98 1.32 3 2 C3.43237305 4.98095703 3.43237305 4.98095703 3.51171875 8.7578125 C3.52966995 9.42086395 3.54762115 10.08391541 3.56611633 10.76705933 C3.62032924 12.88630803 3.65414771 15.00533025 3.6875 17.125 C3.72066367 18.56122952 3.75515245 19.9974291 3.79101562 21.43359375 C3.87605964 24.95551129 3.94281873 28.47750759 4 32 C6.31 32 8.62 32 11 32 C10.34 32.66 9.68 33.32 9 34 C6.69 34 4.38 34 2 34 C2 27.4 2 20.8 2 14 C0.68 13.67 -0.64 13.34 -2 13 C-1.01 13 -0.02 13 1 13 C0.67 8.71 0.34 4.42 0 0 Z " fill="#81939C" transform="translate(75,28)"/>
<path d="M0 0 C0.33 0 0.66 0 1 0 C0.67 6.27 0.34 12.54 0 19 C4.75587143 19.24880696 4.75587143 19.24880696 9.51269531 19.47802734 C13.12277656 19.69261259 15.92053049 20.04755284 19 22 C18 23 18 23 14.625 23.0625 C13.42875 23.041875 12.2325 23.02125 11 23 C8.97873716 23 6.95708126 23.04256811 4.9375 23.125 C1.14233654 22.96350368 0.60189856 21.60189856 -2 19 C-2.1953125 15.7421875 -2.1953125 15.7421875 -2.125 11.875 C-2.10695313 10.59367187 -2.08890625 9.31234375 -2.0703125 7.9921875 C-2.04710938 7.00476563 -2.02390625 6.01734375 -2 5 C-1.34 5 -0.68 5 0 5 C0 3.35 0 1.7 0 0 Z " fill="#215CA8" transform="translate(103,62)"/>
<path d="M0 0 C0.33 0 0.66 0 1 0 C1 10.23 1 20.46 1 31 C-6 30 -6 30 -7.9375 28.4375 C-8.288125 27.963125 -8.63875 27.48875 -9 27 C-6.36 27.33 -3.72 27.66 -1 28 C-1.01160156 27.15179688 -1.02320312 26.30359375 -1.03515625 25.4296875 C-1.10087875 16.88576189 -0.72474688 8.51577586 0 0 Z " fill="#E6D2A8" transform="translate(128,36)"/>
<path d="M0 0 C3 0.6875 3 0.6875 6 1.6875 C9.15020361 0.80430706 9.15020361 0.80430706 12 -0.3125 C14 5.4375 14 5.4375 14 7.6875 C13.01 7.6875 12.02 7.6875 11 7.6875 C11 6.3675 11 5.0475 11 3.6875 C10.34 3.6875 9.68 3.6875 9 3.6875 C9 4.3475 9 5.0075 9 5.6875 C8.01 5.6875 7.02 5.6875 6 5.6875 C6 5.0275 6 4.3675 6 3.6875 C0.06 2.6975 0.06 2.6975 -6 1.6875 C-3 -0.3125 -3 -0.3125 0 0 Z " fill="#DCC8A1" transform="translate(105,17.3125)"/>
<path d="M0 0 C4.95 0.99 9.9 1.98 15 3 C15 3.33 15 3.66 15 4 C9.06 4.495 9.06 4.495 3 5 C1.99740493 8.00778521 1.69685358 10.53820647 1.4375 13.6875 C1.35371094 14.68136719 1.26992188 15.67523438 1.18359375 16.69921875 C1.12300781 17.45847656 1.06242187 18.21773437 1 19 C0.67 19 0.34 19 0 19 C0 12.73 0 6.46 0 0 Z " fill="#BFA76D" transform="translate(58,37)"/>
<path d="M0 0 C-1.98 0.99 -1.98 0.99 -4 2 C0.95 2.33 5.9 2.66 11 3 C11 3.33 11 3.66 11 4 C0.11 4.495 0.11 4.495 -11 5 C-9 1 -9 1 -5.5 -0.3125 C-2 -1 -2 -1 0 0 Z " fill="#99B3CC" transform="translate(11,85)"/>
<path d="M0 0 C0.79921875 0.28746094 1.5984375 0.57492188 2.421875 0.87109375 C3.32679687 1.21333984 3.32679687 1.21333984 4.25 1.5625 C2.375 2.625 2.375 2.625 0.25 3.5625 C-0.41 3.2325 -1.07 2.9025 -1.75 2.5625 C-1.75 3.2225 -1.75 3.8825 -1.75 4.5625 C-2.41 4.5625 -3.07 4.5625 -3.75 4.5625 C-3.75 8.5225 -3.75 12.4825 -3.75 16.5625 C-4.08 16.5625 -4.41 16.5625 -4.75 16.5625 C-4.75 11.2825 -4.75 6.0025 -4.75 0.5625 C-6.07 0.2325 -7.39 -0.0975 -8.75 -0.4375 C-5.32056481 -1.62521723 -3.37215325 -1.23976223 0 0 Z " fill="#CF9737" transform="translate(62.75,61.4375)"/>
<path d="M0 0 C2.64 0.33 5.28 0.66 8 1 C8.33 1.99 8.66 2.98 9 4 C5.81223289 3.85967508 2.6248615 3.71173356 -0.5625 3.5625 C-1.45775391 3.52318359 -2.35300781 3.48386719 -3.27539062 3.44335938 C-8.2458219 3.20667217 -13.08823519 2.80178328 -18 2 C-18 1.67 -18 1.34 -18 1 C-12.06 1 -6.12 1 0 1 C0 0.67 0 0.34 0 0 Z " fill="#98B8D0" transform="translate(147,88)"/>
<path d="M0 0 C1.75570312 0.43119141 1.75570312 0.43119141 3.546875 0.87109375 C4.88492188 1.21333984 4.88492188 1.21333984 6.25 1.5625 C6.25 1.8925 6.25 2.2225 6.25 2.5625 C4.04173622 2.58972517 1.83337362 2.60899729 -0.375 2.625 C-1.60476562 2.63660156 -2.83453125 2.64820312 -4.1015625 2.66015625 C-7.42723791 2.57113924 -10.49047588 2.19936087 -13.75 1.5625 C-8.62257802 -1.85578132 -5.96304703 -1.49076176 0 0 Z " fill="#245FA7" transform="translate(144.75,87.4375)"/>
<path d="M0 0 C0.99 0.33 1.98 0.66 3 1 C3 1.33 3 1.66 3 2 C-0.34252724 2.07427838 -2.8035914 2.06546953 -6 1 C-7.7015625 1.495 -7.7015625 1.495 -9.4375 2 C-12.71420187 2.91977596 -13.94443456 3.22222618 -17 2 C-11.60505303 -2.04621023 -6.20086797 -1.74477864 0 0 Z " fill="#507FB7" transform="translate(144,86)"/>
<path d="M0 0 C0.33 0 0.66 0 1 0 C1 2.31 1 4.62 1 7 C-0.41396902 7.50757862 -1.83131729 8.00574925 -3.25 8.5 C-4.03890625 8.7784375 -4.8278125 9.056875 -5.640625 9.34375 C-9.34866026 10.37512405 -13.17128454 10 -17 10 C-13.4602993 7.64019954 -11.00893712 7.41399192 -6.8125 6.875 C-5.54019531 6.70742187 -4.26789062 6.53984375 -2.95703125 6.3671875 C-1.98121094 6.24601562 -1.00539063 6.12484375 0 6 C0 4.02 0 2.04 0 0 Z " fill="#93AED1" transform="translate(30,74)"/>
<path d="M0 0 C-0.99 0.33 -1.98 0.66 -3 1 C-3 1.66 -3 2.32 -3 3 C-7.40914783 4.10228696 -11.48382401 4.07654536 -16 4 C-10.73149092 0.48766061 -6.28842188 -0.25153688 0 0 Z " fill="#628FB8" transform="translate(100,62)"/>
<path d="M0 0 C0 0.66 0 1.32 0 2 C-1.72492978 2.53469802 -3.455198 3.05219175 -5.1875 3.5625 C-6.63189453 3.99755859 -6.63189453 3.99755859 -8.10546875 4.44140625 C-11.12752588 5.02461026 -13.05929955 4.81178385 -16 4 C-13.17486464 2.46837764 -10.57754511 1.54445124 -7.4375 0.875 C-6.67308594 0.70742188 -5.90867187 0.53984375 -5.12109375 0.3671875 C-3 0 -3 0 0 0 Z " fill="#7B9FCA" transform="translate(48,63)"/>
<path d="M0 0 C0.33 0 0.66 0 1 0 C0.67 6.27 0.34 12.54 0 19 C-0.33 19 -0.66 19 -1 19 C-1.33 14.38 -1.66 9.76 -2 5 C-1.34 5 -0.68 5 0 5 C0 3.35 0 1.7 0 0 Z " fill="#3B6389" transform="translate(103,62)"/>
<path d="M0 0 C0 0.99 0 1.98 0 3 C-1.65 3.33 -3.3 3.66 -5 4 C-5 7.3 -5 10.6 -5 14 C-5.33 14 -5.66 14 -6 14 C-6 10.37 -6 6.74 -6 3 C-5.01 3 -4.02 3 -3 3 C-3 2.34 -3 1.68 -3 1 C-2.01 0.67 -1.02 0.34 0 0 Z " fill="#5E7D9B" transform="translate(82,65)"/>
<path d="M0 0 C2.31 0 4.62 0 7 0 C6.67 0.66 6.34 1.32 6 2 C4.68 2 3.36 2 2 2 C1.67 3.65 1.34 5.3 1 7 C0.67 7 0.34 7 0 7 C0 4.69 0 2.38 0 0 Z " fill="#4471A9" transform="translate(30,67)"/>
<path d="M0 0 C0 1.32 0 2.64 0 4 C-2.92879371 3.37240135 -5.36095629 2.41377341 -8 1 C-5.29120665 -0.35439668 -2.99066732 -0.06501451 0 0 Z " fill="#3A71B0" transform="translate(56,62)"/>
<path d="M0 0 C2.97 0.33 5.94 0.66 9 1 C8.67 1.66 8.34 2.32 8 3 C5.69 3 3.38 3 1 3 C0.67 2.01 0.34 1.02 0 0 Z " fill="#2B619A" transform="translate(113,82)"/>
<path d="M0 0 C4.3177458 0.50797009 8.03302114 1.19682779 12 3 C12 3.33 12 3.66 12 4 C7.12335991 4.34833144 4.22949995 3.41685712 0 1 C0 0.67 0 0.34 0 0 Z " fill="#DBCAA3" transform="translate(67,64)"/>
<path d="M0 0 C0.78890625 0.30164062 1.5778125 0.60328125 2.390625 0.9140625 C3.18984375 1.21054687 3.9890625 1.50703125 4.8125 1.8125 C5.41578125 2.05226562 6.0190625 2.29203125 6.640625 2.5390625 C4.660625 3.5290625 4.660625 3.5290625 2.640625 4.5390625 C2.640625 3.8790625 2.640625 3.2190625 2.640625 2.5390625 C-0.329375 2.2090625 -3.299375 1.8790625 -6.359375 1.5390625 C-2.359375 -0.4609375 -2.359375 -0.4609375 0 0 Z " fill="#EAD7B0" transform="translate(60.359375,60.4609375)"/>
<path d="M0 0 C-2 2 -2 2 -3.9453125 2.1953125 C-5.96354167 2.13020833 -7.98177083 2.06510417 -10 2 C-6.19832777 -0.53444815 -4.31588991 -1.33941411 0 0 Z " fill="#175AAC" transform="translate(132,86)"/>
</svg>
